<?xml version="1.0" encoding="UTF-8" standalone="no"?>
<svg
   xmlns:dc="http://purl.org/dc/elements/1.1/"
   xmlns:cc="http://creativecommons.org/ns#"
   xmlns:rdf="http://www.w3.org/1999/02/22-rdf-syntax-ns#"
   xmlns:svg="http://www.w3.org/2000/svg"
   xmlns="http://www.w3.org/2000/svg"
   xmlns:sodipodi="http://sodipodi.sourceforge.net/DTD/sodipodi-0.dtd"
   xmlns:inkscape="http://www.inkscape.org/namespaces/inkscape"
   width="832pt"
   height="1201pt"
   viewBox="0 0 832 1201"
   version="1.1"
   id="svg2"
   inkscape:version="0.48.5 r10040"
   sodipodi:docname="zorg.svg">
  <metadata
     id="metadata1082">
    <rdf:RDF>
      <cc:Work
         rdf:about="">
        <dc:format>image/svg+xml</dc:format>
        <dc:type
           rdf:resource="http://purl.org/dc/dcmitype/StillImage" />
      </cc:Work>
    </rdf:RDF>
  </metadata>
  <defs
     id="defs1080" />
  <sodipodi:namedview
     pagecolor="#ffffff"
     bordercolor="#666666"
     borderopacity="1"
     objecttolerance="10"
     gridtolerance="10"
     guidetolerance="10"
     inkscape:pageopacity="0"
     inkscape:pageshadow="2"
     inkscape:window-width="1839"
     inkscape:window-height="1056"
     id="namedview1078"
     showgrid="false"
     inkscape:zoom="0.25000001"
     inkscape:cx="813.96475"
     inkscape:cy="657.99252"
     inkscape:window-x="81"
     inkscape:window-y="24"
     inkscape:window-maximized="1"
     inkscape:current-layer="svg2"
     showguides="true"
     inkscape:guide-bbox="true" />
  <path
     id="path146"
     transform="scale(0.8,0.8)"
     d="M 502.1875,12.71875 C 388.58072,14.062741 276.48459,95.778449 254.875,267.59375 224.45634,243.08452 179.25418,195.57048 154.1875,204.25 c 12.32835,42.10121 89.68258,108.80402 85.65625,117.83991 -25.85498,169.1611 -10.68032,453.29606 -38.1875,619.69134 l 94.80154,59.70155 c 114.11635,119.2944 269.21782,117.7797 428.22971,47.2047 0,0 54.26652,-28.8915 82.625,-45.3085 0.59707,-221.09183 -9.13918,-490.78888 -23.34375,-677.37284 18.73606,-41.8716 94.73053,-102.77745 102.56255,-140.03741 -27.43053,-11.5616 -93.38871,55.09438 -119.375,81.71875 C 761.53104,134.27292 637.1759,14.753052 502.1875,12.71875 z m 2.28125,21.09375 c 117.82105,0.196205 240.00502,109.87061 248,244.59375 l -227.40625,219.125 -253.75,-217.8125 C 303.06486,103.65097 403.72322,33.644731 504.46875,33.8125 z M 869.8125,197.34375 517.34375,591.5 186,230.375 524.625,521.84375 z M 257.75,339.53125 519.125,624.625 760.75,345.52329 c 5.95023,95.97021 42.44417,642.39957 29.5625,645.72671 L 729.25,1026.2188 C 748.51304,881.71199 705.1707,657.83798 552.78125,637.1875 459.70604,622.53311 398.61979,650.91005 350.09375,726.3438 281.94029,859.8088 306.87808,974.50339 301.0312,988.37505 l -80.34568,-52.8096 C 235.99112,738.71575 252.7231,526.47419 257.75,339.53125 z M 521.3125,1078.625 c -6.95058,-1.7927 -29.71875,-1.5308 -29.71875,-1.5308 l -3.7188,-420.5938 26.125,-2.5 z M 460.78125,655.09375 c 0,0 3.08338,291.43499 5.34375,420.06245 L 447.21875,1067.781 437.6875,662 z M 565.375,660 l 9.375,416.1875 -23.15625,1.9375 -8.6875,-421.53125 z m 29.3125,11.28125 25.1875,9.0625 9.7813,384.75005 -34.34375,9.1874 -0.6249,-402.99955 z m -172.25,7.65625 -1.875,381.3437 -25.71875,-12.2187 13.0938,-365.125 z m 221.03125,22.5625 14.57107,27.25749 19.06108,320.86271 -24.31965,9.8173 z m -252.40625,6.4375 -14.375,327 -19.28125,-14.375 12.65625,-281.46875 z m 321.83342,323.0579 -15.6963,7.5137 -17.26207,-276.31387 c 0,0 54.07504,121.28075 32.95837,268.80017 z M 344.875,794.59375 l -5.53125,219.59375 -15.25,-10.2799 C 324.03491,929.84533 322.61554,857.69085 344.875,794.59375 z M 153.5,1157.6875 c 61.85624,23.1109 143.75542,7.8625 196.6875,20.9063 -52.28572,62.8309 -126.96755,97.5175 -184.46875,139.1562 -11.3125,10.7125 -2.99375,29.4 10.21875,34 61.55618,9.9951 122.73029,-2.0252 179.28125,13.4373 8.54579,-4.1325 11.6431,-18.2783 7.4375,-21.625 -13.29374,-19.1117 -133.55741,18.655 -177.1875,-17.25 63.81551,-43.1891 137.84679,-91.5455 191.40625,-149.0625 0.6625,-8.2375 -9.11875,-11.1125 -15.59375,-12.4375 -63.41668,-9.6308 -135.45202,1.6979 -190.3125,-18.0625 -9.58151,-3.1773 -21.18109,-0.1235 -17.46875,10.9377 z m 599.875,93.2187 c -6.60254,55.9097 -10.79284,106.4217 32.625,120.5313 28.55675,7.97 74.67667,-0.2153 95.72855,-13.7889 13.43313,22.9734 -18.86622,70.1317 -10.8535,89.1014 6.76386,-0.3099 22.92035,5.6376 27.625,3.0312 12.2881,-34.5497 26.81092,-84.5614 12.65625,-122.25 -3.2,-4.8623 -6.06875,-11.3812 -12.40625,-12.5937 -9.59384,-10.0245 -70.84914,-22.8132 -69.1875,-16.125 1.1125,1.75 1.375,9.5293 3.5625,10.2417 16.76034,5.7588 41.02401,12.6953 47.03125,20.7896 2.975,6.8375 -0.48487,11.6338 -7.60631,14.239 -29.54751,13.3161 -83.15583,21.083 -95.14369,1.0734 -23.73356,-65.572 -3.72721,-112.7814 48.03125,-133.875 14.11522,3.7702 24.78845,19.7552 28.375,32.25 4.1909,21.1022 31.14058,4.4576 27.9375,1.0313 -4.29251,-10.2249 -9.18854,-14.3916 -13.28125,-20.4063 -48.84799,-72.7748 -114.07481,12.6002 -115.0938,26.75 z m -177,-28.375 c -2.48665,34.9184 -0.47151,138.7425 12.5,156.1876 7.46244,1.0105 15.50251,7.9737 18.28125,1.0937 5.56263,0.05 -2.18651,-101.4184 -4.34375,-143.3125 21.75656,-14.346 90.25804,-26.0165 105.90625,-7.375 5.8625,23.75 -21.5875,35.825 -40,42.0625 -17.0375,1.4 -34.35625,3.4125 -51.40625,1.6875 -3.525,-1.5125 -5.75,4.5375 -3.625,7.125 -3.50776,11.7462 39.19674,13.5595 48.875,17.4375 14.19017,9.068 44.14944,25.2418 51.28125,38.6875 3.7,6.7 0.5375,16.7125 6.3125,22.1875 8.225,-1.45 22.975,0.3812 24.9375,-10.7813 -6.96774,-32.8861 -39.82425,-40.3826 -60.34375,-59.9374 16.20754,-10.6368 60.62962,-27.0799 55.40625,-46.3126 -4.09013,-54.9357 -125.7515,-44.7833 -163.78125,-18.75 z m -169.5625,44.3438 c -9.32178,43.1301 -3.15576,80.7586 30.84375,98.75 53.31695,21.0996 108.86873,-17.5885 106.65625,-73.1875 -2.09024,-25.6365 -10.09227,-33.2528 -20,-53 -7.525,-8.75 -20.28125,-4.6125 -20.65625,3.25 48.93968,59.0816 6.66536,123.2914 -52.53125,111.1563 -61.24513,-30.0992 -28.92449,-132.166 41.25,-114.6876 10.63122,3.7073 14.7155,-8.5569 7.90625,-13.1562 -49.56837,-15.7263 -79.23319,9.1745 -93.46875,40.875 z"
     inkscape:connector-curvature="0"
     sodipodi:nodetypes="ccccccccccccscccsccccccccccccccccccccccccccccccccccccccccccccccccccccccccccccccccccccccccccccccccccccccccccccccccccccccccccccccc" />
  <path
     style="fill:#ff0000"
     d="m 171.40787,216.52962 c 126.06802,103.71479 353.37045,304.19919 353.37045,304.19919 0,0 211.88953,-205.25594 346.20302,-324.5542 0,0 -353.36502,396.3846 -353.85692,396.51781 0,0 -220.74168,-234.36469 -345.71655,-376.1628 z"
     id="path4369"
     inkscape:connector-curvature="0"
     transform="scale(0.8,0.8)"
     sodipodi:nodetypes="ccccc" />
  <path
     style="fill:#e6e6e6;fill-opacity:1"
     d="m 398.61435,388.60775 c -69.41477,-59.57238 -126.39966,-108.49332 -126.6331,-108.7132 -0.8536,-0.80403 6.43084,-33.44919 10.93406,-49.00093 14.56569,-50.30217 35.57639,-91.01357 63.866,-123.75 5.5977,-6.4776 19.33565,-20.045445 25.37437,-25.060185 19.07767,-15.842677 39.73461,-27.784489 62,-35.842299 33.94553,-12.284834 71.76743,-15.29477 107.25,-8.535153 40.25113,7.668052 79.04765,26.703165 114.71752,56.284962 8.31943,6.899495 25.97759,24.455905 33.09334,32.902675 36.98593,43.90422 58.22498,93.88682 62.69257,147.53659 l 0.31532,3.78659 -113.33385,109.21341 C 576.55696,447.49759 525.39164,496.70607 525.18987,496.7824 524.9881,496.85873 468.02912,448.18014 398.61435,388.60775 z"
     id="path2983"
     inkscape:connector-curvature="0"
     transform="scale(0.8,0.8)" />
  <path
     style="fill:#e6e6e6;fill-opacity:1"
     d="m 731.16421,900.99969 c -2.2313,-22.02765 -5.71743,-43.8683 -10.46915,-65.5 -3.56292,-15.99998 -9.50503,-36.43779 -15.01308,-51.63734 -22.81435,-64.46455 -76.41079,-127.30508 -133.83272,-143.31642 -20.88955,-5.45825 -31.74018,-6.55305 -64.59937,-6.51787 -21.14917,0.0226 -28.31726,0.38421 -35.5,1.79069 -19.51747,4.12618 -38.71471,11.04796 -55,20.78543 -23.64861,14.28211 -50.22506,41.48038 -65.71393,67.25145 -6.6423,13.95934 -14.12115,27.90151 -19.29393,41.14406 -10.65618,28.13037 -19.26437,58.81922 -24.42692,87 -8.37988,49.76189 -5.87057,88.79765 -5.35894,137.25 -27.4035,-18.20514 -81.58913,-54.03053 -81.58913,-54.03053 6.32502,-94.05928 15.558,-190.91751 21.45561,-274.46726 0.28378,-3.98628 0.72003,-10.28628 0.96946,-14 7.86355,-99.6407 10.39703,-203.58973 15.28803,-306.844 0,0 160.33453,164.99196 260.98215,284.2977 0,0 202.11022,-237.35486 242.02379,-281.00879 34.287,214.97441 34.08318,627.15673 30.94713,647.60793 -22.75739,9.68126 -42.52661,23.13406 -63.18533,34.96906 5.74545,-39.07585 6.44971,-89.64012 2.31633,-124.77411 z"
     id="path2991"
     inkscape:connector-curvature="0"
     transform="scale(0.8,0.8)"
     sodipodi:nodetypes="ccccsccccccccccccccc" />
  <path
     style="fill:#666666;fill-opacity:1"
     d="m 331.54786,1008.4297 -6.89429,-4.7415 0,-35.13952 c 0,-75.77068 4.12327,-117.55508 15.56038,-157.68572 4.19042,-14.70338 4.3158,-14.74875 3.90788,-1.41421 -0.19631,6.41699 -1.32535,52.71481 -2.50899,102.88404 -1.18364,50.16922 -2.38126,93.38161 -2.66138,96.02761 l -0.50931,4.8108 -6.89429,-4.7415 z"
     id="path3041"
     inkscape:connector-curvature="0"
     transform="scale(0.8,0.8)" />
  <path
     style="fill:#666666;fill-opacity:1"
     d="m 366.58009,1027.0131 c -8.14404,-6.1262 -8.63219,-6.6328 -8.64191,-8.9679 -0.006,-1.3611 2.79785,-64.62924 6.23003,-140.59575 l 6.24034,-138.12091 9.8262,-14.58561 c 6.9481,-10.31348 9.88842,-14.15818 10.03863,-13.12632 0.23512,1.61511 -13.04984,308.67899 -13.70872,316.85849 -0.22713,2.8196 -0.62446,5.105 -0.88296,5.0787 -0.2585,-0.026 -4.35422,-2.9696 -9.10161,-6.5407 l 0,0 z"
     id="path3043"
     inkscape:connector-curvature="0"
     transform="scale(0.8,0.8)" />
  <path
     style="fill:#666666;fill-opacity:1"
     d="m 407.56184,1053.6851 -12.19759,-5.8731 0.003,-2.6858 c 0.002,-1.4772 2.86441,-82.23528 6.36165,-179.46246 3.49725,-97.22718 6.35967,-178.05325 6.36095,-179.61348 l 0.002,-2.83678 7.09047,-1.86917 7.09048,-1.86917 -0.40562,55.97119 c -0.22309,30.78416 -0.70637,116.24047 -1.07396,189.9029 -0.36759,73.66244 -0.75065,133.99407 -0.85123,134.07027 -0.10058,0.076 -5.6718,-2.5043 -12.38047,-5.7344 z"
     id="path3045"
     inkscape:connector-curvature="0"
     transform="scale(0.8,0.8)" />
  <path
     style="fill:#666666;fill-opacity:1"
     d="m 456.74722,1071.1627 c -4.54687,-1.8157 -8.47584,-3.5101 -8.73104,-3.7654 -0.72866,-0.7286 -10.07157,-404.61895 -9.3706,-405.08718 1.12377,-0.75064 21.08392,-6.52071 21.41422,-6.19041 0.17776,0.17777 0.80673,41.98853 1.39771,92.9128 1.54382,133.03131 3.74101,301.74369 4.13192,317.27279 0.11503,4.5697 0.0327,8.2748 -0.18301,8.2336 -0.21569,-0.041 -4.11232,-1.5605 -8.6592,-3.3762 l 0,0 z"
     id="path3047"
     inkscape:connector-curvature="0"
     transform="scale(0.8,0.8)" />
  <path
     style="fill:#666666;fill-opacity:1"
     d="m 513.45108,1077.417 c -2.52791,-0.2841 -8.33502,-0.5538 -12.9047,-0.5992 -4.56968,-0.045 -8.34526,-0.1622 -8.39019,-0.2595 -0.10059,-0.2177 -3.97415,-419.44573 -3.87706,-419.60614 0.23491,-0.3881 24.63711,-2.42323 24.97725,-2.08309 0.23013,0.23013 1.93214,88.80062 3.78223,196.82332 1.85009,108.02269 3.48433,203.16661 3.63164,211.43091 0.26343,14.7783 0.24401,15.0243 -1.17757,14.9182 -0.79497,-0.059 -3.5137,-0.3403 -6.0416,-0.6245 z"
     id="path3049"
     inkscape:connector-curvature="0"
     transform="scale(0.8,0.8)" />
  <path
     style="fill:#666666;fill-opacity:1"
     d="m 551.63484,1070.1561 c 0,-9.6245 -7.55019,-380.18213 -8.12974,-399.00122 l -0.43719,-14.19662 10.79584,1.67604 c 5.93771,0.92182 10.8799,1.7601 10.98265,1.86285 0.17054,0.17054 9.41586,404.87155 9.41586,412.16645 l 0,3.1613 -4.77297,0.43 c -2.62513,0.2365 -7.7163,0.646 -11.31371,0.9101 l -6.54074,0.4801 0,-7.489 0,0 z"
     id="path3051"
     inkscape:connector-curvature="0"
     transform="scale(0.8,0.8)" />
  <path
     style="fill:#666666;fill-opacity:1"
     d="m 595.47484,916.79985 c -3.4e-4,-86.46117 -0.21137,-176.98601 -0.46896,-201.1663 l -0.46835,-43.96417 11.95945,4.26227 c 6.5777,2.34425 12.2016,4.48755 12.49755,4.76287 0.5484,0.51018 10.54253,383.42788 10.02106,383.94938 -0.15723,0.1572 -7.05213,2.0985 -15.32201,4.314 -8.26987,2.2154 -15.75208,4.2567 -16.62712,4.5361 l -1.591,0.508 -6.2e-4,-157.20215 z"
     id="path3053"
     inkscape:connector-curvature="0"
     transform="scale(0.8,0.8)" />
  <path
     style="fill:#666666;fill-opacity:1"
     d="m 648.60347,884.8719 c -2.46546,-95.7355 -4.37048,-175.48213 -4.23337,-177.21473 l 0.24929,-3.15018 6.53177,12.21589 6.53178,12.2159 9.51543,159.9328 c 5.23349,87.96305 9.29455,160.14682 9.02457,160.40842 -0.26997,0.2616 -4.46833,2.0658 -9.32969,4.0093 -4.86136,1.9435 -9.9567,4.0092 -11.32297,4.5904 l -2.48414,1.0567 -4.48267,-174.0645 0,0 z"
     id="path3055"
     inkscape:connector-curvature="0"
     transform="scale(0.8,0.8)" />
  <path
     style="fill:#666666;fill-opacity:1"
     d="m 697.29884,1036.0195 c 0,-2.1689 -16.02831,-260.208 -16.57721,-266.87584 l -0.37836,-4.59619 1.09983,2.47487 c 2.17859,4.90233 8.97964,24.63186 12.43125,36.06245 10.63958,35.23481 17.65442,71.89593 21.58032,112.78353 0.94802,9.87354 1.22966,20.02246 1.25585,45.25483 0.0336,32.37566 -0.11064,35.34786 -2.88544,59.45635 l -1.14623,9.959 -7.34495,3.6528 c -4.03973,2.0091 -7.50023,3.6529 -7.69001,3.6529 -0.18978,0 -0.34505,-0.8211 -0.34505,-1.8247 z"
     id="path3059"
     inkscape:connector-curvature="0"
     transform="scale(0.8,0.8)" />
</svg>
